<?xml version="1.0" standalone="no"?>
<!DOCTYPE svg PUBLIC "-//W3C//DTD SVG 20010904//EN"
 "http://www.w3.org/TR/2001/REC-SVG-20010904/DTD/svg10.dtd">
<svg version="1.0" xmlns="http://www.w3.org/2000/svg"
 width="512.000000pt" height="512.000000pt" viewBox="0 0 512.000000 512.000000"
 preserveAspectRatio="xMidYMid meet">
<metadata>
Created by potrace 1.14, written by Peter Selinger 2001-2017
</metadata>
<g transform="translate(0.000000,512.000000) scale(0.100000,-0.100000)"
fill="#000000" stroke="none">
<path d="M3724 3412 c-90 -32 -181 -84 -263 -150 -35 -29 -52 -38 -47 -26 4
10 10 49 13 85 9 101 14 99 -292 99 -266 0 -282 -3 -316 -50 -12 -17 -70 -278
-178 -801 -89 -427 -161 -784 -161 -793 0 -9 9 -25 20 -36 19 -19 33 -20 303
-20 302 0 311 1 338 51 5 11 55 232 109 491 108 512 120 551 193 613 104 89
286 85 330 -8 9 -19 17 -58 17 -86 0 -28 -43 -258 -95 -512 -52 -253 -95 -471
-95 -485 0 -13 9 -33 20 -44 19 -19 33 -20 306 -20 l286 0 28 28 c18 18 32 47
39 82 79 364 201 954 201 974 0 14 5 26 10 26 6 0 10 40 10 100 0 60 -4 100
-10 100 -5 0 -10 11 -10 23 0 37 -37 136 -71 188 -43 68 -100 116 -188 158
l-76 36 -170 3 c-165 2 -172 2 -251 -26z"/>
<path d="M891 3407 c-13 -6 -32 -23 -42 -37 -11 -16 -53 -195 -116 -500 l-98
-475 0 -180 0 -180 37 -77 c87 -182 244 -268 489 -268 204 0 340 48 465 164
56 50 66 57 61 36 -4 -14 -10 -48 -13 -76 -6 -44 -3 -55 15 -73 20 -20 29 -21
287 -21 l266 0 28 29 c16 16 31 39 35 52 39 168 315 1530 315 1554 0 63 -11
65 -313 65 -285 0 -316 -4 -344 -49 -6 -10 -55 -230 -108 -487 -106 -515 -122
-566 -194 -624 -105 -82 -264 -81 -325 3 -36 50 -27 123 78 620 53 251 96 466
96 476 0 11 -12 29 -26 40 -26 20 -39 21 -298 21 -195 0 -278 -4 -295 -13z"/>
</g>
</svg>
