<?xml version="1.0" standalone="no"?>
<!DOCTYPE svg PUBLIC "-//W3C//DTD SVG 20010904//EN"
 "http://www.w3.org/TR/2001/REC-SVG-20010904/DTD/svg10.dtd">
<svg version="1.0" xmlns="http://www.w3.org/2000/svg"
 width="512.000000pt" height="512.000000pt" viewBox="0 0 512.000000 512.000000"
 preserveAspectRatio="xMidYMid meet">
<metadata>
Created by potrace 1.14, written by Peter Selinger 2001-2017
</metadata>
<g transform="translate(0.000000,512.000000) scale(0.100000,-0.100000)"
fill="#000000" stroke="none">
<path d="M1435 4499 c-3 -8 -34 -122 -69 -254 -55 -204 -229 -853 -326 -1215
-16 -58 -43 -159 -60 -225 -17 -66 -50 -185 -72 -265 -21 -80 -42 -170 -45
-201 -15 -170 100 -344 259 -393 138 -42 264 -74 269 -68 5 6 32 103 84 302 3
8 15 56 29 105 74 275 181 675 207 775 31 119 68 256 186 685 59 218 68 261
68 335 0 74 -4 93 -31 150 -56 116 -152 192 -290 226 -83 20 -84 21 -132 34
-24 6 -50 14 -58 17 -7 3 -16 -1 -19 -8z"/>
<path d="M3235 3959 c-93 -32 -169 -97 -215 -184 -12 -21 -46 -132 -76 -245
-31 -113 -95 -353 -144 -535 -49 -181 -114 -424 -145 -540 -159 -590 -225
-841 -225 -851 0 -12 258 -83 318 -88 56 -4 156 19 212 50 93 51 149 127 188
259 18 58 126 456 137 505 5 18 62 231 180 670 48 179 97 363 110 410 62 231
87 326 90 340 2 8 12 45 23 82 l19 67 -32 11 c-18 6 -41 13 -51 15 -10 2 -62
16 -114 29 -115 31 -195 32 -275 5z"/>
<path d="M2275 3571 c-112 -32 -197 -99 -247 -196 -16 -30 -93 -294 -133 -455
-2 -8 -27 -100 -55 -205 -28 -104 -62 -233 -76 -285 -43 -160 -159 -591 -276
-1025 -56 -205 -56 -203 -24 -215 50 -19 272 -69 311 -71 148 -5 300 93 358
233 8 20 38 123 67 230 28 106 97 360 152 563 55 204 101 377 103 385 4 18 81
307 176 657 76 281 85 323 73 323 -5 0 -52 12 -104 26 -201 55 -240 59 -325
35z"/>
<path d="M3746 3221 c-2 -3 -12 -35 -21 -71 -9 -36 -82 -308 -162 -605 -79
-297 -163 -607 -185 -690 -22 -82 -41 -158 -43 -168 -2 -9 -6 -21 -9 -25 -3
-5 -7 -19 -10 -33 -4 -24 -50 -196 -109 -409 -44 -160 -44 -258 0 -352 33 -71
91 -134 158 -173 40 -24 323 -107 336 -100 3 3 10 19 14 37 4 18 9 38 10 43
11 40 229 850 240 890 48 176 236 881 240 899 3 11 21 80 40 151 37 139 42
206 18 284 -29 98 -110 194 -198 235 -58 28 -313 97 -319 87z"/>
</g>
</svg>
